# xmcd CD database file
#
# Track frame offsets:
#	150
#	13410
#	26357
#	39847
#	54195
#	67945
#	81429
#	93760
#	108717
#	123305
#	137082
#	151982
#	165880
#	180810
#	194915
#	209170
#	222950
#	236152
#	249535
#	262782
#	274762
#	293140
#	310890
#	323612
#
# Disc length: 4480 seconds
#
# Revision: 2
# Processed by: cddbd v1.4PL0 Copyright (c) Steve Scherf et al.
# Submitted via: CDex 1.40Beta8
#
DISCID=4d117e18
DTITLE=Lonnie Johnson - Swing Out Rhythm
DYEAR=1900
DGENRE=Blues
TTITLE0=Stompin' 'em Along Slow
TTITLE1=Sweet Woman You Can't Go Wrong
TTITLE2=A Worried Woman's Blues
TTITLE3=Woke Up With The Blues In My Fingers
TTITLE4=Hotter Than That
TTITLE5=Paducah
TTITLE6=Tin Can Alley Blues
TTITLE7=Bitin' Fleas Blues
TTITLE8=It Feels So Good Part 3
TTITLE9=Jet Black Blues
TTITLE10=Bull Frog Moan
TTITLE11=You Done Lost Your Good Thing Now Part 1
TTITLE12=Midnight Call (Blues)
TTITLE13=Blue Room (Blues)
TTITLE14=What Makes You Act Like That
TTITLE15=Beautiful But Dumb
TTITLE16=From A Wash Woman On Up
TTITLE17=Cat You Been Messin' Aroun'
TTITLE18=My Last Love
TTITLE19=Swing Out Rhythm
TTITLE20=Rocks In My Bed No.2
TTITLE21=More Rhythm
TTITLE22=In Love Again
TTITLE23=Mr,Johnson Swing
EXTD=ID3G: 0
EXTT0=
EXTT1=
EXTT2=
EXTT3=
EXTT4=
EXTT5=
EXTT6=
EXTT7=
EXTT8=
EXTT9=
EXTT10=
EXTT11=
EXTT12=
EXTT13=
EXTT14=
EXTT15=
EXTT16=
EXTT17=
EXTT18=
EXTT19=
EXTT20=
EXTT21=
EXTT22=
EXTT23=
PLAYORDER=
